<?xml version="1.0" encoding="UTF-8"?>
<svg id="Layer_2" data-name="Layer 2" xmlns="http://www.w3.org/2000/svg" xmlns:xlink="http://www.w3.org/1999/xlink" viewBox="0 0 139.86 82.88">
  <defs>
    <style>
      .cls-1 {
        fill: #ffc538;
      }

      .cls-2 {
        fill: url(#linear-gradient-3);
      }

      .cls-3 {
        fill: url(#linear-gradient-2);
      }

      .cls-4 {
        fill: #a16076;
      }

      .cls-5 {
        fill: url(#linear-gradient);
      }

      .cls-6 {
        opacity: .2;
      }

      .cls-6, .cls-7 {
        fill: #49456c;
      }
    </style>
    <linearGradient id="linear-gradient" x1="117.04" y1="62.8" x2="-45.07" y2="-8.66" gradientUnits="userSpaceOnUse">
      <stop offset="0" stop-color="#a16076"/>
      <stop offset="1" stop-color="#ffc538"/>
    </linearGradient>
    <linearGradient id="linear-gradient-2" x1="19.44" y1="61.72" x2="52.33" y2="5.63" xlink:href="#linear-gradient"/>
    <linearGradient id="linear-gradient-3" x1="40.59" y1="94.12" x2="75.57" y2="10.66" xlink:href="#linear-gradient"/>
  </defs>
  <g id="OBJECTS">
    <g>
      <path class="cls-5" d="M88.46,37.42c-5.9-1.57-11.38-4.45-16.02-8.41l-4.53-3.87c-6.7-5.71-14.83-9.47-23.52-10.86l-14.2-9.7h0c-.27-.26-.56-.5-.88-.71-1.57-2.34-4.24-3.88-7.26-3.88-2.67,0-5.05,1.2-6.66,3.08H7.17C3.21,3.08,0,6.29,0,10.26v8.78c0,1.88,1.52,3.4,3.4,3.4h18.91c.79,0,1.55-.11,2.28-.29l5.6,6.32v3.14c0,9.71,6.24,18.32,15.46,21.35l10.96,3.59c5.23,1.72,10.95,1.12,15.72-1.63h0c4.31-2.49,9.2-3.8,14.18-3.8h53.35l-51.39-13.69Z"/>
      <path class="cls-4" d="M78.06,64.01h0c-1.28-.72-2.87-.33-3.69.84l-3.17-1.78c.17-.25.33-.52.47-.79l7.07-12.59-15.27-9.23-7.46,13.05c-1.2,2.03-1.6,4.53-.91,6.98.69,2.46,2.34,4.38,4.43,5.5l10.79,6.05-2.63,4.69h-5.42c-3.39,0-6.14,2.75-6.14,6.14h18.83s0,0,0,0l4.44-15.64c.36-1.26-.19-2.59-1.33-3.23Z"/>
      <path class="cls-4" d="M25.76,34.14h0v12.48h0c-2.01,0-3.64-1.63-3.64-3.64v-5.2c0-2.01,1.63-3.64,3.64-3.64Z" transform="translate(22.27 -6.53) rotate(28.63)"/>
      <path class="cls-6" d="M24.59,22.14l2.71,3.05c2.64-1.66,4.39-4.59,4.39-7.94v-4.2c0,4.39-3.02,8.07-7.1,9.09Z"/>
      <path class="cls-1" d="M59.36,43.74l-21.71-15.75-6.74-7.02c-.76,1.74-2.02,3.22-3.61,4.22l2.89,3.26v3.14c0,9.71,6.24,18.32,15.46,21.35l10.96,3.59c5.23,1.72,10.95,1.12,15.72-1.63h0c4.31-2.49,9.2-3.8,14.18-3.8h53.35l-80.5-7.37Z"/>
      <path class="cls-7" d="M19.68,4.68c0,.08-.01.16-.01.24,0,1.31,1.06,2.37,2.37,2.37s2.37-1.06,2.37-2.37c0-.41-.11-.8-.29-1.14l-4.43.9Z"/>
      <path class="cls-3" d="M40.29,25.36c-2.1.1-3.72,1.91-3.72,4.02v5.75h-9.7c-2.01,0-3.64,1.63-3.64,3.64v5.2c0,2.01,1.63,3.64,3.64,3.64v-6.88h11.92c3.09,0,5.6-2.51,5.6-5.6v-5.86c0-2.22-1.85-4.01-4.1-3.91Z"/>
      <path class="cls-2" d="M58.89,62.16l10.21-10.21c1.71-1.63,2.78-3.94,2.78-6.49,0-4.96-4.02-8.98-8.98-8.98-2.98,0-5.62,1.45-7.25,3.69l-9.46,9.31h0c-1.7,1.63-2.76,3.93-2.76,6.47s1.07,4.85,2.78,6.49h0l8.75,8.75-5.54,5.54h-5.61c-3.39,0-6.14,2.75-6.14,6.14h18.83l8.51-13.85c.68-1.11.51-2.55-.41-3.47h0c-1.04-1.04-2.67-1.1-3.78-.19l-2.57-2.57c.23-.2.46-.41.67-.63Z"/>
      <circle class="cls-4" cx="48.59" cy="17.4" r="1.1"/>
      <circle class="cls-4" cx="54.81" cy="20.93" r="2.44"/>
      <circle class="cls-4" cx="62.52" cy="27.24" r="1.88"/>
      <circle class="cls-4" cx="56.93" cy="28.7" r="1.46"/>
      <circle class="cls-4" cx="68.61" cy="31.64" r="1.48"/>
      <circle class="cls-4" cx="5.12" cy="9.15" r="1.87"/>
    </g>
  </g>
</svg>